<svg xmlns="http://www.w3.org/2000/svg" fill="#d4af37" viewBox="0 0 24 24" width="20" height="20">
  <path d="M19 0h-14c-2.76 0-5 2.24-5 5v14c0 2.76 2.24 5 
           5 5h14c2.76 0 5-2.24 5-5v-14c0-2.76-2.24-5-5-5zm-11 
           19h-3v-10h3v10zm-1.5-11.27c-.97 0-1.75-.79-1.75-1.76 
           0-.97.78-1.76 1.75-1.76s1.75.79 
           1.75 1.76c0 .97-.78 1.76-1.75 1.76zm13.5 
           11.27h-3v-5.36c0-1.28-.02-2.92-1.78-2.92-1.79 
           0-2.07 1.4-2.07 2.83v5.45h-3v-10h2.88v1.36h.04c.4-.75 
           1.38-1.54 2.84-1.54 3.04 0 3.6 2. 
           3.6 4.59v5.59z"></path>
</svg>
